<svg id="Capa_1" enable-background="new 0 0 512 512" height="512" viewBox="0 0 512 512" width="512"
    xmlns="http://www.w3.org/2000/svg">
    <g>
        <path
            d="m390.915 120.767v-120.767l-269.83 90.789v97.913l-121.085 30.261v293.037h512v-421.493zm-269.83 361.225h-30.542v-76.608h-30v76.608h-30.543v-239.596l91.085-22.764zm179.327-.378h-29.412v-61.1h29.412zm-59.412 0h-29.412v-61.1h29.412zm119.915.378h-30.503v-91.485h-148.824v91.485h-30.503v-369.637l209.83-70.602zm121.085 0h-30.543v-76.356h-30v76.356h-30.542v-330.295l91.085-22.763z" />
        <path d="m181.588 314.637h30v40.924h-30z" />
        <path d="m300.412 314.637h30v40.924h-30z" />
        <path d="m241 314.889h30v40.925h-30z" />
        <path d="m181.588 224.034h30v40.924h-30z" />
        <path d="m300.412 224.034h30v40.924h-30z" />
        <path d="m241 224.286h30v40.925h-30z" />
        <path d="m181.588 133.377h30v40.924h-30z" />
        <path d="m300.412 93.029h30v81.272h-30z" />
        <path d="m241 113.455h30v61.098h-30z" />
        <path d="m421.457 314.889h30v40.925h-30z" />
        <path d="m60.543 273.606h30v77.238h-30z" />
        <path d="m421.457 187.973h30v77.238h-30z" />
    </g>
</svg>