<?xml version="1.0"?>
<svg xmlns="http://www.w3.org/2000/svg" width="512" height="512" viewBox="0 0 512 512">
    <g>
        <path
            d="M392,360a24,24,0,1,0,24,24A24.028,24.028,0,0,0,392,360Zm0,32a8,8,0,1,1,8-8A8.009,8.009,0,0,1,392,392Z" />
        <path
            d="M104,360a24,24,0,1,0,24,24A24.028,24.028,0,0,0,104,360Zm0,32a8,8,0,1,1,8-8A8.009,8.009,0,0,1,104,392Z" />
        <path
            d="M477.31,276.74l-63.52-10.7-50.11-85.88A57.307,57.307,0,0,0,314.23,152H304V131.67c33.06-9.13,50.98-20.1,52.24-20.89a7.993,7.993,0,0,0,0-13.56C354.07,95.86,302,64,208,64c-44.9,0-86.24,3.39-116.39,9.53C56.4,80.71,40,90.39,40,104s16.4,23.29,51.61,30.47c1.44.29,2.93.58,4.42.86-.01.22-.03.44-.03.67v16H66.67a32.155,32.155,0,0,0-30.72,23.04L8.36,269.61a.06.06,0,0,1-.01.04l-.03.11c-.01.04-.02.09-.03.13-.06.22-.11.45-.16.68-.01.1-.03.19-.04.29a5.05,5.05,0,0,0-.06.56c-.01.12-.02.24-.02.35,0,.08-.01.15-.01.23V384a8,8,0,0,0,8,8H48.58a55.914,55.914,0,0,0,16.28,32H16a8,8,0,0,0,0,16H464a8,8,0,0,0,0-16H431.14a55.914,55.914,0,0,0,16.28-32H496a8,8,0,0,0,8-8V308.3A31.908,31.908,0,0,0,477.31,276.74ZM356.74,200l37.33,64H280V200ZM69.82,112H192a8,8,0,0,0,0-16H69.82c6.33-2.38,15.5-5.01,28.77-7.53C127.33,83.01,166.19,80,208,80c62.33,0,105.63,14.93,126.18,24-20.55,9.07-63.85,24-126.18,24-41.81,0-80.67-3.01-109.41-8.47C85.32,117.01,76.15,114.38,69.82,112ZM288,135.63V152H112V137.96c27.27,3.92,60.52,6.04,96,6.04A371.3,371.3,0,0,0,288,135.63ZM51.31,179.52A16.084,16.084,0,0,1,66.67,168H314.23a41.45,41.45,0,0,1,32.79,16H50ZM264,200v64H144V200ZM45.33,200H128v64H26.67ZM24,336h8v8H24Zm24.58,40H24V360H40a8,8,0,0,0,8-8V328a8,8,0,0,0-8-8H24V280H264v96H159.42a55.994,55.994,0,0,0-110.84,0ZM104,424a40,40,0,1,1,40-40A40.04,40.04,0,0,1,104,424Zm39.14,0a55.914,55.914,0,0,0,16.28-32H336c.19,0,.39-.02.58-.03A55.816,55.816,0,0,0,352.86,424ZM392,424a40,40,0,1,1,40-40A40.04,40.04,0,0,1,392,424Zm96-80H464v-8h24Zm0-24H464a16.021,16.021,0,0,0-16,16v8a16.021,16.021,0,0,0,16,16h24v16H447.42a55.991,55.991,0,0,0-110.84.03c-.19-.01-.39-.03-.58-.03H280V280H400.33l74.33,12.52A15.954,15.954,0,0,1,488,308.3Z" />
        <path d="M496,424h-8a8,8,0,0,0,0,16h8a8,8,0,0,0,0-16Z" />
        <path d="M312,288H296a8,8,0,0,0,0,16h16a8,8,0,0,0,0-16Z" />
        <path d="M232,304h16a8,8,0,0,0,0-16H232a8,8,0,0,0,0,16Z" />
        <path d="M80,296a8,8,0,0,0-8-8H40a8,8,0,0,0,0,16H72A8,8,0,0,0,80,296Z" />
    </g>
</svg>