<svg id="Capa_1" enable-background="new 0 0 512 512" height="512" viewBox="0 0 512 512" width="512" xmlns="http://www.w3.org/2000/svg"><g><path d="m477 .007h-442c-19.299 0-35 15.701-35 35v325.244c0 19.299 15.701 35 35 35h137.26c1.895 0 3.604 1.049 4.46 2.74l48.061 94.837c12.949 25.552 49.49 25.553 62.439 0l48.062-94.838c.855-1.69 2.564-2.739 4.459-2.739h137.259c19.299 0 35-15.701 35-35v-325.244c0-19.299-15.701-35-35-35zm5 360.244c0 2.757-2.243 5-5 5h-137.26c-13.263 0-25.226 7.349-31.22 19.179l-48.061 94.837c-1.861 3.673-7.059 3.672-8.92 0l-48.06-94.836c-5.995-11.831-17.958-19.18-31.221-19.18h-137.258c-2.757 0-5-2.243-5-5v-325.244c0-2.757 2.243-5 5-5h442c2.757 0 5 2.243 5 5z"/><path d="m225.171 229.891c-6.349-5.323-15.81-4.491-21.132 1.856-6.883 8.207-16.205 11.848-26.914 11.848-25.347 0-45.968-20.621-45.968-45.967s20.621-45.967 45.968-45.967c9.213 0 18.097 2.711 25.689 7.841 6.865 4.639 16.19 2.832 20.827-4.032 4.638-6.864 2.832-16.189-4.032-20.826-12.572-8.494-27.263-12.983-42.484-12.983-41.889 0-75.968 34.079-75.968 75.967s34.079 75.967 75.968 75.967c19.509 0 37.269-7.506 49.902-22.573 5.323-6.346 4.492-15.808-1.856-21.131z"/><path d="m405.484 229.894c-6.348-5.325-15.809-4.497-21.133 1.85-6.911 8.241-16.251 11.852-26.918 11.852-25.347 0-45.967-20.621-45.967-45.967s20.62-45.967 45.967-45.967c9.213 0 18.097 2.711 25.689 7.841 6.865 4.639 16.19 2.832 20.827-4.032 4.638-6.864 2.832-16.189-4.032-20.826-12.572-8.494-27.263-12.983-42.484-12.983-41.889 0-75.967 34.079-75.967 75.967s34.078 75.967 75.967 75.967c19.511 0 37.262-7.505 49.9-22.569 5.325-6.346 4.497-15.807-1.849-21.133z"/></g></svg>