<?xml version="1.0"?>
<svg xmlns="http://www.w3.org/2000/svg" xmlns:xlink="http://www.w3.org/1999/xlink" xmlns:svgjs="http://svgjs.com/svgjs" version="1.1" width="512" height="512" x="0" y="0" viewBox="0 0 24 24" style="enable-background:new 0 0 512 512" xml:space="preserve" class=""><g><path xmlns="http://www.w3.org/2000/svg" d="m14.25 11.25h-1.25v-3.25c0-.552-.448-1-1-1s-1 .448-1 1v3.25h-1.25c-.666 0-1.001.809-.53 1.28l2.25 2.25c.146.147.338.22.53.22s.384-.073.53-.22l2.25-2.25c.471-.471.136-1.28-.53-1.28z" fill="#ffffff" data-original="#000000" style="" class=""/><path xmlns="http://www.w3.org/2000/svg" d="m15 19h-6c-1.103 0-2-.897-2-2v-1c0-.552.448-1 1-1s1 .448 1 1v1h6v-1c0-.552.448-1 1-1s1 .448 1 1v1c0 1.103-.897 2-2 2z" fill="#ffffff" data-original="#000000" style="" class=""/><path xmlns="http://www.w3.org/2000/svg" d="m20 3c0-1.654-1.346-3-3-3h-10c-1.654 0-3 1.346-3 3v18c0 1.654 1.346 3 3 3h10c1.654 0 3-1.346 3-3zm-2 18c0 .552-.448 1-1 1h-10c-.552 0-1-.448-1-1v-18c0-.552.448-1 1-1h.5c.552 0 1 .448 1 1 0 .552.448 1 1 1h5c.552 0 1-.448 1-1 0-.552.448-1 1-1h.5c.552 0 1 .448 1 1z" fill="#ffffff" data-original="#000000" style="" class=""/></g></svg>
