<svg width="1200" height="307" viewBox="0 0 1200 307" fill="none" xmlns="http://www.w3.org/2000/svg">
<mask id="mask0" mask-type="alpha" maskUnits="userSpaceOnUse" x="0" y="0" width="1200" height="307">
<rect width="1200" height="307" rx="12" fill="#663259"/>
</mask>
<g mask="url(#mask0)">
<mask id="mask1" mask-type="alpha" maskUnits="userSpaceOnUse" x="747" y="-23" width="463" height="348">
<rect x="747" y="-23" width="463" height="348" fill="white"/>
</mask>
<g mask="url(#mask1)">
<path d="M1036.38 267.2C1036.38 299.232 1010.46 325.2 978.5 325.2V267.2H1036.38Z" fill="#3699FF"/>
<path d="M1152.12 209.2C1120.16 209.2 1094.25 183.232 1094.25 151.2H1152.12V209.2Z" fill="#D6DA34"/>
<path d="M978.919 337.578C940.077 337.578 908.59 306.042 908.59 267.14H978.919V337.578Z" fill="#6ED47C"/>
<path d="M978.5 296.8C962.187 296.8 948.964 283.548 948.964 267.2H978.5V296.8Z" fill="#D5E155"/>
<path d="M1209.13 6.29004L1180.19 6.29004C1164.21 6.29004 1151.26 19.2738 1151.26 35.29H1180.19C1196.18 35.29 1209.13 22.3063 1209.13 6.29004Z" fill="#6ED47C"/>
<path d="M1036.38 238.2H1065.17C1081.23 238.2 1094.25 251.184 1094.25 267.2H1065.46C1049.4 267.2 1036.38 254.216 1036.38 238.2Z" fill="#6ED47C"/>
<path d="M1094.25 325.2V267.2C1094.25 235.168 1120.16 209.2 1152.12 209.2V267.2C1152.12 299.232 1126.21 325.2 1094.25 325.2Z" fill="#6ED47C"/>
<path d="M1123.19 267V238.246C1123.19 222.205 1136.14 209.2 1152.12 209.2V237.954C1152.12 253.996 1139.17 267 1123.19 267Z" fill="#2D3652"/>
<path d="M1077.09 209C1077.09 199.39 1084.86 191.6 1094.45 191.6C1104.04 191.6 1111.81 199.39 1111.81 209C1111.81 218.61 1104.04 226.4 1094.45 226.4C1084.86 226.4 1077.09 218.61 1077.09 209Z" fill="#FF743C"/>
<path d="M1085.87 209.1C1085.87 204.295 1089.76 200.4 1094.55 200.4C1099.34 200.4 1103.23 204.295 1103.23 209.1C1103.23 213.905 1099.34 217.8 1094.55 217.8C1089.76 217.8 1085.87 213.905 1085.87 209.1Z" fill="#FFC700"/>
<path d="M1152.12 122C1152.12 105.984 1139.17 93 1123.19 93C1107.21 93 1094.25 105.984 1094.25 122C1094.25 138.016 1107.21 151 1123.19 151H1152.12V122Z" fill="#FF743C"/>
<path d="M1151.39 34.8602V55.8241C1151.39 67.402 1142.02 76.7879 1130.46 76.7879V55.8241C1130.46 44.2462 1139.83 34.8602 1151.39 34.8602Z" fill="#A04AE3"/>
<path d="M1152.13 136C1152.13 127.716 1145.42 121 1137.16 121C1128.89 121 1122.19 127.716 1122.19 136C1122.19 144.284 1128.89 151 1137.16 151H1152.13V136Z" fill="#FFC700"/>
<path d="M1036.38 296.2C1036.38 280.184 1049.33 267.2 1065.31 267.2C1081.29 267.2 1094.25 280.184 1094.25 296.2C1094.25 312.216 1081.29 325.2 1065.31 325.2C1049.33 325.2 1036.38 312.216 1036.38 296.2Z" fill="#FF743C"/>
<path d="M1049.35 295.9C1049.35 287.009 1056.54 279.8 1065.41 279.8C1074.28 279.8 1081.48 287.009 1081.48 295.9C1081.48 304.792 1074.28 312 1065.41 312C1056.54 312 1049.35 304.792 1049.35 295.9Z" fill="#2D3652"/>
<path d="M1151.93 93C1151.93 60.9678 1177.84 35 1209.8 35V93L1151.93 93Z" fill="#FF743C"/>
<path d="M1209.8 209C1177.84 209 1151.93 183.032 1151.93 151L1209.8 151V209Z" fill="#3699FF"/>
<path d="M1151.93 151C1151.93 118.967 1177.84 93 1209.8 93V151H1151.93Z" fill="#6ED47C"/>
<path d="M1180.26 151C1180.26 134.652 1193.49 121.4 1209.8 121.4V151H1180.26Z" fill="#D5E155"/>
<path d="M1152.12 296.29C1152.12 312.306 1165.08 325.29 1181.06 325.29C1197.04 325.29 1210 312.306 1210 296.29C1210 280.274 1197.04 267.29 1181.06 267.29H1152.12V296.29Z" fill="#FFC700"/>
<path d="M1152.13 282.29C1152.13 290.574 1158.83 297.29 1167.09 297.29C1175.36 297.29 1182.06 290.574 1182.06 282.29C1182.06 274.006 1175.36 267.29 1167.09 267.29H1152.13V282.29Z" fill="#FF743C"/>
<path d="M1180.86 209C1196.84 209 1209.8 221.984 1209.8 238C1209.8 254.016 1196.84 267 1180.86 267C1164.88 267 1151.93 254.016 1151.93 238C1151.93 221.984 1164.88 209 1180.86 209Z" fill="#FF743C"/>
<path d="M1181.16 222C1190.03 222 1197.23 229.208 1197.23 238.1C1197.23 246.992 1190.03 254.2 1181.16 254.2C1172.29 254.2 1165.1 246.992 1165.1 238.1C1165.1 229.208 1172.29 222 1181.16 222Z" fill="#2D3652"/>
<path d="M952.964 225.212H994.826C1017.95 225.212 1036.69 243.984 1036.69 267.14H994.826C971.707 267.14 952.964 248.368 952.964 225.212Z" fill="#A04AE3"/>
<path d="M994.826 246.176H1015.65C1027.27 246.176 1036.69 255.562 1036.69 267.14H1015.86C1004.24 267.14 994.826 257.754 994.826 246.176Z" fill="#6ED47C"/>
</g>
</g>
</svg>
