<?xml version="1.0" encoding="utf-8"?>
<svg width="20px" height="20px" viewBox="0 0 20 20" version="1.1" xmlns:xlink="http://www.w3.org/1999/xlink" xmlns="http://www.w3.org/2000/svg">
  <desc>Created with Lunacy</desc>
  <g id="Component/icon/ic_Saved">
    <path d="M6.3755 6.36343C6.18046 6.80161 6.2081 7.17067 6.35905 7.32957L8.97562 10.0839C9.10765 10.2228 9.40478 10.2475 9.83799 10.0359C11.7168 9.25883 12.0593 9.15503 12.5634 9.68567L15.5712 12.8517C16.1191 13.4284 15.9832 14.3215 15.4343 14.8992C13.1891 17.2626 9.53044 17.2626 7.28528 14.8992L1.66663 8.98487C-0.555543 6.64574 -0.555543 2.8701 1.66663 0.530971C2.23414 -0.0664074 3.15193 -0.221196 3.72956 0.386839L6.73733 3.55291C7.20591 4.04616 7.10672 4.40886 6.3755 6.36343ZM14.25 6.83839C14.25 3.98492 11.9368 1.67173 9.08333 1.67173C8.62309 1.67173 8.25 1.29863 8.25 0.838394C8.25 0.378157 8.62309 0.00506099 9.08333 0.00506099C12.8573 0.00506099 15.9167 3.06445 15.9167 6.83839C15.9167 7.29863 15.5436 7.67173 15.0833 7.67173C14.6231 7.67173 14.25 7.29863 14.25 6.83839ZM8.49361 13.7513C10.0652 15.4056 12.5848 15.4228 14.176 13.803L11.6413 11.1348C11.3726 11.219 10.9837 11.3655 10.5251 11.5533C9.53572 12.0413 8.45077 11.9512 7.76729 11.2318L5.15072 8.47748C4.48616 7.77795 4.40485 6.69219 4.83345 5.73316C5.04373 5.16977 5.18895 4.74042 5.26756 4.453C5.26954 4.44577 5.27146 4.43868 5.27333 4.43171L2.76855 1.79509C1.26472 3.49882 1.30019 6.1793 2.87496 7.83695L8.49361 13.7513ZM9.08333 3.92173C10.6942 3.92173 12 5.22756 12 6.83839C12 7.29863 12.3731 7.67173 12.8333 7.67173C13.2936 7.67173 13.6667 7.29863 13.6667 6.83839C13.6667 4.30709 11.6146 2.25506 9.08333 2.25506C8.6231 2.25506 8.25 2.62816 8.25 3.08839C8.25 3.54863 8.6231 3.92173 9.08333 3.92173ZM9.75 6.83839C9.75 6.4702 9.45152 6.17173 9.08333 6.17173C8.6231 6.17173 8.25 5.79863 8.25 5.33839C8.25 4.87816 8.6231 4.50506 9.08333 4.50506C10.372 4.50506 11.4167 5.54973 11.4167 6.83839C11.4167 7.29863 11.0436 7.67173 10.5833 7.67173C10.1231 7.67173 9.75 7.29863 9.75 6.83839Z" transform="translate(1.6666666 1.6616056)" id="Shape" fill="#0062FF" fill-rule="evenodd" stroke="none" />
  </g>
</svg>