<svg width="384" height="184" viewBox="0 0 384 184" fill="none" xmlns="http://www.w3.org/2000/svg">
<path d="M255.875 96.7178C255.875 90.8731 251.135 86.1349 245.289 86.1349C239.443 86.1349 234.703 90.8731 234.703 96.7178C234.703 102.562 239.443 107.301 245.289 107.301C248.797 107.301 251.641 110.144 251.641 113.65C251.641 117.157 248.797 120 245.289 120C232.427 120 222 109.576 222 96.7178C222 83.8592 232.427 73.4355 245.289 73.4355C258.151 73.4355 268.578 83.8592 268.578 96.7178C268.578 100.224 265.734 103.067 262.227 103.067C258.719 103.067 255.875 100.224 255.875 96.7178Z" fill="#E53855"/>
<path fill-rule="evenodd" clip-rule="evenodd" d="M307.586 191.834C301.74 191.834 297 196.573 297 202.417C297 208.262 301.74 213 307.586 213C313.432 213 318.172 208.262 318.172 202.417C318.172 196.573 313.432 191.834 307.586 191.834ZM239.586 42.8344C233.74 42.8344 229 47.5725 229 53.4172C229 59.2623 233.74 64 239.586 64C245.432 64 250.172 59.2623 250.172 53.4172C250.172 47.5725 245.432 42.8344 239.586 42.8344Z" fill="#FFC735"/>
<path d="M285.99 31.2234C280.143 31.2234 275.404 26.4853 275.404 20.6405C275.404 14.7958 280.143 10.0577 285.99 10.0577C291.836 10.0577 296.576 14.7958 296.576 20.6405C296.576 24.1473 299.42 26.9903 302.927 26.9903C306.435 26.9903 309.279 24.1473 309.279 20.6405C309.279 7.78194 298.852 -2.64176 285.99 -2.64176C273.127 -2.64176 262.701 7.78194 262.701 20.6405C262.701 33.4992 273.127 43.9229 285.99 43.9229C289.498 43.9229 292.341 41.0799 292.341 37.5731C292.341 34.0664 289.498 31.2234 285.99 31.2234Z" fill="#44AB96"/>
<path fill-rule="evenodd" clip-rule="evenodd" d="M231.452 -47.5225C244.306 -47.5225 254.726 -37.0973 254.726 -24.2369V18.1006C254.726 30.9611 244.306 41.3862 231.452 41.3862C218.598 41.3862 208.178 30.9611 208.178 18.1006V4.55262H194.848C181.994 4.55262 171.573 -5.87255 171.573 -18.733V-61.0705C171.573 -66.9173 166.837 -71.6548 160.994 -71.6548H141.528C135.686 -71.6548 130.949 -66.9173 130.949 -61.0705C130.949 -57.5649 128.107 -54.7198 124.602 -54.7198C121.096 -54.7198 118.254 -57.5649 118.254 -61.0705C118.254 -73.9326 128.674 -84.3561 141.528 -84.3561H160.994C167.663 -84.3561 173.678 -81.5491 177.921 -77.0529C182.165 -81.5491 188.179 -84.3561 194.848 -84.3561H213.89C217.396 -84.3561 220.238 -81.511 220.238 -78.0055C220.238 -74.4999 217.396 -71.6548 213.89 -71.6548H194.848C189.005 -71.6548 184.269 -66.9173 184.269 -61.0705V-18.733C184.269 -12.8875 189.005 -8.14862 194.848 -8.14862H208.178V-24.2369C208.178 -37.0973 218.598 -47.5225 231.452 -47.5225ZM220.873 18.1007C220.873 23.9462 225.609 28.685 231.452 28.685C237.295 28.685 242.031 23.9462 242.031 18.1007V-24.2367C242.031 -30.0823 237.295 -34.8211 231.452 -34.8211C225.609 -34.8211 220.873 -30.0823 220.873 -24.2367V18.1007Z" fill="#8950FC"/>
<path fill-rule="evenodd" clip-rule="evenodd" d="M290.234 181.435C290.234 162.735 275.071 147.575 256.365 147.575C252.858 147.575 250.014 144.733 250.014 141.226C250.014 137.72 252.858 134.878 256.365 134.878C282.085 134.878 302.936 155.722 302.936 181.435C302.936 184.941 300.092 187.784 296.585 187.784C293.078 187.784 290.234 184.941 290.234 181.435Z" fill="#44AB96"/>
<path fill-rule="evenodd" clip-rule="evenodd" d="M303.298 43.1982C306.801 43.1982 309.641 40.359 309.641 36.8568C309.641 33.3546 306.801 30.5153 303.298 30.5153C299.795 30.5153 296.955 33.3546 296.955 36.8568C296.955 40.359 299.795 43.1982 303.298 43.1982Z" fill="#FD6234"/>
<path fill-rule="evenodd" clip-rule="evenodd" d="M303.298 60.0483C306.801 60.0483 309.641 57.209 309.641 53.7069C309.641 50.2047 306.801 47.3654 303.298 47.3654C299.795 47.3654 296.955 50.2047 296.955 53.7069C296.955 57.209 299.795 60.0483 303.298 60.0483Z" fill="#FD6234"/>
<path fill-rule="evenodd" clip-rule="evenodd" d="M312.722 171.387C312.722 158.528 323.136 148.104 335.981 148.104H378.27C391.116 148.104 401.529 158.528 401.529 171.387C401.529 184.245 391.116 194.669 378.27 194.669H335.981C323.136 194.669 312.722 184.245 312.722 171.387ZM335.981 160.804C330.142 160.804 325.409 165.542 325.409 171.387C325.409 177.231 330.142 181.97 335.981 181.97H378.27C384.109 181.97 388.842 177.231 388.842 171.387C388.842 165.542 384.109 160.804 378.27 160.804H335.981Z" fill="#44AB96"/>
<path fill-rule="evenodd" clip-rule="evenodd" d="M401.166 119.296C401.166 115.794 398.322 112.954 394.814 112.954C388.966 112.954 384.226 108.222 384.226 102.385V60.1087C384.226 54.2715 388.966 49.5395 394.814 49.5395C398.322 49.5395 401.166 46.7003 401.166 43.1981C401.166 39.6959 398.322 36.8566 394.814 36.8566C388.139 36.8566 382.121 39.6591 377.874 44.1497C373.627 39.6591 367.608 36.8566 360.933 36.8566H341.452C328.588 36.8566 318.159 47.2668 318.159 60.1087C318.159 63.6108 321.004 66.4501 324.512 66.4501C328.02 66.4501 330.865 63.6108 330.865 60.1087C330.865 54.2715 335.605 49.5395 341.452 49.5395H360.933C366.781 49.5395 371.521 54.2715 371.521 60.1087V102.385C371.521 102.385 371.521 102.385 371.521 102.385C371.521 115.227 381.949 125.637 394.814 125.637C398.322 125.637 401.166 122.798 401.166 119.296Z" fill="#44AB96"/>
<path fill-rule="evenodd" clip-rule="evenodd" d="M394.732 36.8401C400.579 36.8401 405.318 32.102 405.318 26.2572C405.318 20.4125 400.579 15.6744 394.732 15.6744C388.886 15.6744 384.146 20.4125 384.146 26.2572C384.146 29.764 381.303 32.607 377.795 32.607C374.287 32.607 371.443 29.764 371.443 26.2572C371.443 13.3986 381.87 2.97494 394.732 2.97494C407.595 2.97494 418.021 13.3986 418.021 26.2572C418.021 39.1159 407.595 49.5396 394.732 49.5396C391.225 49.5396 388.381 46.6966 388.381 43.1898C388.381 39.6831 391.225 36.8401 394.732 36.8401Z" fill="#463C74"/>
<path fill-rule="evenodd" clip-rule="evenodd" d="M342.717 90.8663C336.871 90.8663 332.131 95.6045 332.131 101.449C332.131 107.294 336.871 112.032 342.717 112.032C348.564 112.032 353.303 107.294 353.303 101.449C353.303 97.9425 356.147 95.0995 359.655 95.0995C363.162 95.0995 366.006 97.9425 366.006 101.449C366.006 114.308 355.58 124.731 342.717 124.731C329.855 124.731 319.428 114.308 319.428 101.449C319.428 88.5906 329.855 78.1669 342.717 78.1669C346.225 78.1669 349.069 81.0099 349.069 84.5166C349.069 88.0234 346.225 90.8663 342.717 90.8663Z" fill="#E53855"/>
<path fill-rule="evenodd" clip-rule="evenodd" d="M377.043 177.637C369.235 177.637 362.957 183.912 362.957 191.588C362.957 199.265 369.235 205.54 377.043 205.54C381.356 205.54 385.205 203.628 387.795 200.602C390.075 197.938 394.089 197.621 396.76 199.895C399.432 202.168 399.749 206.171 397.469 208.835C392.558 214.573 385.223 218.223 377.043 218.223C362.267 218.223 350.239 206.326 350.239 191.588C350.239 176.851 362.267 164.954 377.043 164.954C380.555 164.954 383.402 167.794 383.402 171.296C383.402 174.798 380.555 177.637 377.043 177.637Z" fill="#FD6234"/>
<path fill-rule="evenodd" clip-rule="evenodd" d="M287.712 59.6973C287.712 67.7658 294.408 74.5205 302.936 74.5205C311.463 74.5205 318.159 67.7658 318.159 59.6973C318.159 56.1888 321 53.3445 324.503 53.3445C328.006 53.3445 330.846 56.1888 330.846 59.6973C330.846 75.019 318.231 87.2261 302.936 87.2261C287.64 87.2261 275.025 75.019 275.025 59.6973C275.025 56.1888 277.865 53.3445 281.368 53.3445C284.871 53.3445 287.712 56.1888 287.712 59.6973Z" fill="#FFB017"/>
<path fill-rule="evenodd" clip-rule="evenodd" d="M366.03 101.544C366.03 117.667 379.118 130.736 395.263 130.736C408.133 130.736 418.565 141.154 418.565 154.006C418.565 166.857 408.133 177.275 395.263 177.275C391.753 177.275 388.908 174.434 388.908 170.929C388.908 167.424 391.753 164.583 395.263 164.583C401.113 164.583 405.855 159.847 405.855 154.006C405.855 148.164 401.113 143.429 395.263 143.429C372.098 143.429 353.32 124.676 353.32 101.544C353.32 98.0395 356.165 95.1981 359.675 95.1981C363.184 95.1981 366.03 98.0395 366.03 101.544Z" fill="#FFB017"/>
<path d="M312.722 170.028C312.722 143.41 291.138 121.832 264.513 121.832C261.01 121.832 258.17 118.993 258.17 115.491C258.17 111.989 261.01 109.15 264.513 109.15C298.145 109.15 325.409 136.406 325.409 170.028C325.409 173.53 322.569 176.369 319.066 176.369C315.562 176.369 312.722 173.53 312.722 170.028Z" fill="#8950FC"/>
<path d="M99.7935 -16.9427C99.7935 5.75122 118.196 24.148 140.896 24.148C144.406 24.148 147.252 26.993 147.252 30.5022C147.252 34.0114 144.406 36.8564 140.896 36.8564C111.175 36.8564 87.0813 12.7697 87.0813 -16.9427C87.0813 -20.4519 89.927 -23.2969 93.4374 -23.2969C96.9478 -23.2969 99.7935 -20.4519 99.7935 -16.9427Z" fill="#E53855"/>
<path fill-rule="evenodd" clip-rule="evenodd" d="M390.111 -5.90289C373.995 -5.90289 360.932 7.15717 360.932 23.2679C360.932 26.7701 358.091 29.6094 354.588 29.6094C351.085 29.6094 348.245 26.7701 348.245 23.2679C348.245 0.152796 366.989 -18.5858 390.111 -18.5858C393.614 -18.5858 396.454 -15.7466 396.454 -12.2444C396.454 -8.74218 393.614 -5.90289 390.111 -5.90289Z" fill="#FD6234"/>
<path fill-rule="evenodd" clip-rule="evenodd" d="M359.663 95.0168C363.166 95.0168 366.006 97.8561 366.006 101.358C366.006 104.86 363.166 107.7 359.663 107.7C356.16 107.7 353.32 104.86 353.32 101.358C353.32 97.8561 356.16 95.0168 359.663 95.0168Z" fill="#FD6234"/>
<path fill-rule="evenodd" clip-rule="evenodd" d="M298.343 96.317C301.847 96.317 304.687 99.1563 304.687 102.659C304.687 106.161 301.847 109 298.343 109C294.84 109 292 106.161 292 102.659C292 99.1563 294.84 96.317 298.343 96.317Z" fill="#FD6234"/>
<path fill-rule="evenodd" clip-rule="evenodd" d="M324.503 53.3445C328.006 53.3445 330.846 56.1838 330.846 59.6859C330.846 63.1881 328.006 66.0273 324.503 66.0273C321 66.0273 318.159 63.1881 318.159 59.6859C318.159 56.1838 321 53.3445 324.503 53.3445Z" fill="#FD6234"/>
<path fill-rule="evenodd" clip-rule="evenodd" d="M354.343 61.3171C357.847 61.3171 360.687 64.1564 360.687 67.6585C360.687 71.1607 357.847 74 354.343 74C350.84 74 348 71.1607 348 67.6585C348 64.1564 350.84 61.3171 354.343 61.3171Z" fill="#44AB96"/>
<path fill-rule="evenodd" clip-rule="evenodd" d="M319.066 164.954C322.569 164.954 325.409 167.794 325.409 171.296C325.409 174.798 322.569 177.637 319.066 177.637C315.563 177.637 312.722 174.798 312.722 171.296C312.722 167.794 315.563 164.954 319.066 164.954Z" fill="#FD6234"/>
<path fill-rule="evenodd" clip-rule="evenodd" d="M328.309 18.1947C328.309 -4.21992 310.133 -22.3908 287.711 -22.3908C284.208 -22.3908 281.368 -25.2301 281.368 -28.7323C281.368 -32.2344 284.208 -35.0737 287.711 -35.0737C317.139 -35.0737 340.995 -11.2247 340.995 18.1947C340.995 21.6968 338.155 24.5361 334.652 24.5361C331.149 24.5361 328.309 21.6968 328.309 18.1947Z" fill="#B4D51E"/>
<path fill-rule="evenodd" clip-rule="evenodd" d="M140.818 -27.4476C134.972 -27.4476 130.232 -22.7094 130.232 -16.8648C130.232 -11.0201 134.972 -6.28192 140.818 -6.28192C146.665 -6.28192 151.404 -11.0201 151.404 -16.8648C151.404 -20.3715 154.248 -23.2145 157.756 -23.2145C161.264 -23.2145 164.107 -20.3715 164.107 -16.8648C164.107 -4.00619 153.681 6.41748 140.818 6.41748C127.956 6.41748 117.529 -4.00619 117.529 -16.8648C117.529 -29.7233 127.956 -40.147 140.818 -40.147C144.326 -40.147 147.17 -37.3023 147.17 -33.7973C147.17 -30.2906 144.326 -27.4476 140.818 -27.4476Z" fill="#463C74"/>
<path fill-rule="evenodd" clip-rule="evenodd" d="M220.007 72.6585C220.007 69.1563 217.163 66.3171 213.654 66.3171C207.807 66.3171 203.067 61.5851 203.067 55.7479V13.4715C203.067 7.63434 207.807 2.90234 213.654 2.90234C217.163 2.90234 220.007 0.0630493 220.007 -3.43913C220.007 -6.94131 217.163 -9.78061 213.654 -9.78061C206.98 -9.78061 200.961 -6.9781 196.714 -2.4875C192.467 -6.9781 186.448 -9.78061 179.774 -9.78061H160.293C147.428 -9.78061 137 0.629555 137 13.4715C137 16.9736 139.844 19.8129 143.353 19.8129C146.861 19.8129 149.705 16.9736 149.705 13.4715C149.705 7.63434 154.445 2.90234 160.293 2.90234H179.774C185.621 2.90234 190.362 7.63434 190.362 13.4715V55.7475C190.362 55.7479 190.362 55.7475 190.362 55.7475C190.362 68.5894 200.79 79 213.654 79C217.163 79 220.007 76.1607 220.007 72.6585Z" fill="#44AB96"/>
<path fill-rule="evenodd" clip-rule="evenodd" d="M168.586 15.9999C162.74 15.9999 158 20.738 158 26.5827C158 32.4278 162.74 37.1655 168.586 37.1655C174.432 37.1655 179.172 32.4278 179.172 26.5827C179.172 20.738 174.432 15.9999 168.586 15.9999Z" fill="#E5E0D5"/>
</svg>
