<?xml version="1.0" encoding="utf-8"?>
<svg width="24px" height="24px" viewBox="0 0 24 24" version="1.1" xmlns:xlink="http://www.w3.org/1999/xlink" xmlns="http://www.w3.org/2000/svg">
  <desc>Created with Lunacy</desc>
  <g id="Component/icon/ic_Support">
    <path d="M7.6506 7.63612C7.41655 8.16193 7.44972 8.60481 7.63086 8.79548L10.7707 12.1006C10.9292 12.2674 11.2857 12.297 11.8056 12.043C14.0602 11.1106 14.4712 10.986 15.0761 11.6228L18.6855 15.4221C19.3429 16.1141 19.1798 17.1858 18.5211 17.8791C15.827 20.7151 11.4365 20.7151 8.74233 17.8791L1.99996 10.7818C-0.666652 7.97489 -0.666652 3.44412 1.99996 0.637165C2.68097 -0.0796889 3.78231 -0.265435 4.47548 0.464207L8.0848 4.26349C8.6471 4.85539 8.52806 5.29063 7.6506 7.63612ZM17.1 8.20607C17.1 4.78191 14.3242 2.00607 10.9 2.00607C10.3477 2.00607 9.9 1.55836 9.9 1.00607C9.9 0.453788 10.3477 0.00607319 10.9 0.00607319C15.4287 0.00607319 19.1 3.67734 19.1 8.20607C19.1 8.75836 18.6523 9.20607 18.1 9.20607C17.5477 9.20607 17.1 8.75836 17.1 8.20607ZM10.1923 16.5016C12.0782 18.4867 15.1017 18.5074 17.0113 16.5636L13.9696 13.3618C13.6471 13.4628 13.1804 13.6386 12.6301 13.864C11.4429 14.4495 10.1409 14.3415 9.32075 13.4781L6.18086 10.173C5.3834 9.33354 5.28582 8.03063 5.80014 6.87979C6.05248 6.20373 6.22675 5.6885 6.32107 5.3436C6.32344 5.33493 6.32575 5.32641 6.328 5.31805L3.32226 2.15411C1.51766 4.19858 1.56023 7.41516 3.44995 9.40434L10.1923 16.5016ZM10.9 4.70607C12.833 4.70607 14.4 6.27308 14.4 8.20607C14.4 8.75836 14.8477 9.20607 15.4 9.20607C15.9523 9.20607 16.4 8.75836 16.4 8.20607C16.4 5.16851 13.9376 2.70607 10.9 2.70607C10.3477 2.70607 9.9 3.15379 9.9 3.70607C9.9 4.25836 10.3477 4.70607 10.9 4.70607ZM11.7 8.20607C11.7 7.76425 11.3418 7.40607 10.9 7.40607C10.3477 7.40607 9.9 6.95836 9.9 6.40607C9.9 5.85379 10.3477 5.40607 10.9 5.40607C12.4464 5.40607 13.7 6.65968 13.7 8.20607C13.7 8.75836 13.2523 9.20607 12.7 9.20607C12.1477 9.20607 11.7 8.75836 11.7 8.20607Z" transform="translate(2 1.9939268)" id="Shape" fill="#92929D" fill-rule="evenodd" stroke="none" />
  </g>
</svg>