<?xml version="1.0" encoding="utf-8"?>
<!-- Generator: Adobe Illustrator 21.1.0, SVG Export Plug-In . SVG Version: 6.00 Build 0)  -->
<svg version="1.1" id="Layer_1" xmlns="http://www.w3.org/2000/svg" xmlns:xlink="http://www.w3.org/1999/xlink" x="0px" y="0px"
	 viewBox="0 0 128 128" style="enable-background:new 0 0 128 128;" xml:space="preserve">
<style type="text/css">
	.st0{fill:#686499;}
	.st1{fill:#EBD7FF;}
	.st2{fill:#CFA2ED;}
	.st3{fill:#676F77;}
	.st4{fill:#444B54;}
	.st5{fill:none;stroke:#444B54;stroke-width:6;stroke-linecap:round;stroke-linejoin:round;stroke-miterlimit:10;}
	.st6{fill:#FFFFFF;}
	.st7{fill:#FF5576;}
	.st8{fill:#E9EEF4;}
	.st9{fill:#FCCA3D;}
	.st10{fill:#F2A50C;}
	.st11{fill:none;stroke:#FFFFFF;stroke-width:6;stroke-linecap:round;stroke-linejoin:round;stroke-miterlimit:10;}
	.st12{fill:none;stroke:#404242;stroke-width:1.5;stroke-linecap:round;stroke-linejoin:round;stroke-miterlimit:10;}
	.st13{fill:none;stroke:#373536;stroke-width:1.5;stroke-linecap:round;stroke-linejoin:round;stroke-miterlimit:10;}
	.st14{fill:#E4C2FF;}
	.st15{fill:none;stroke:#686499;stroke-width:6;stroke-linecap:round;stroke-linejoin:round;stroke-miterlimit:10;}
	.st16{fill:#DB3E64;}
	.st17{fill:#9B8272;}
	.st18{fill:#EFD5BE;}
</style>
<g>
	<g>
		<g>
			<path class="st6" d="M54,94h50l-1.9-16.2c-0.6-5-4.9-8.8-9.9-8.8H65.9c-5.1,0-9.3,3.8-9.9,8.8L54,94z"/>
			<path class="st5" d="M54,94h50l-1.9-16.2c-0.6-5-4.9-8.8-9.9-8.8H65.9c-5.1,0-9.3,3.8-9.9,8.8L54,94z"/>
			<path class="st4" d="M72.7,66v3H85v-3l0,0c0-1.7-1.3-3-3-3h-6.3C74,63,72.7,64.3,72.7,66L72.7,66z"/>
			<polyline class="st5" points="51,114 51,124 56,124 56,114 			"/>
			<polyline class="st5" points="102,114 102,124 106,124 106,114 			"/>
			<rect x="54" y="88.9" transform="matrix(-1 -4.478385e-11 4.478385e-11 -1 158 202.7677)" class="st4" width="50" height="25"/>
			<rect x="79" y="88.9" class="st4" width="25" height="25"/>
			<path class="st5" d="M54,113.9h50v-20c0-2.8-2.2-5-5-5h0c-13.3-2-26.7-2-40,0h0c-2.8,0-5,2.2-5,5V113.9z"/>
			<path class="st3" d="M104,94L104,94c3.9,0,7,3.1,7,7v13H97v-13C97,97.1,100.1,94,104,94z"/>
			<path class="st3" d="M54,94L54,94c3.9,0,7,3.1,7,7v13H47v-13C47,97.1,50.1,94,54,94z"/>
			<line class="st5" x1="114" y1="114" x2="44" y2="114"/>
			<path class="st5" d="M104,94L104,94c3.9,0,7,3.1,7,7v13H97v-13C97,97.1,100.1,94,104,94z"/>
			<path class="st5" d="M54,94L54,94c3.9,0,7,3.1,7,7v13H47v-13C47,97.1,50.1,94,54,94z"/>
			<circle class="st6" cx="104" cy="101" r="4"/>
			<circle class="st6" cx="54" cy="101" r="4"/>
		</g>
		<path class="st6" d="M73,111h12c1.1,0,2-0.9,2-2v-7c0-4.4-3.6-8-8-8h0c-4.4,0-8,3.6-8,8v7C71,110.1,71.9,111,73,111z"/>
	</g>
	<g>
		<path class="st6" d="M66,124H14c-5.5,0-10-4.5-10-10V24c0-5.5,4.5-10,10-10h52c5.5,0,10,4.5,10,10v90C76,119.5,71.5,124,66,124z"
			/>
		<circle class="st8" cx="40" cy="113" r="4"/>
		<path class="st5" d="M66,124H14c-5.5,0-10-4.5-10-10V24c0-5.5,4.5-10,10-10h52c5.5,0,10,4.5,10,10v90C76,119.5,71.5,124,66,124z"
			/>
		<line class="st5" x1="66" y1="124" x2="109" y2="124"/>
		<circle class="st4" cx="124" cy="124" r="3"/>
		<rect x="13" y="23" class="st8" width="54" height="81"/>
		<circle class="st6" cx="40" cy="63" r="23"/>
		<path class="st5" d="M46.7,50.8c-1.8-1.7-4.3-2.8-7-2.8h0c-5,0-9,4-9,9V69c0,5,4,9,9,9h0c3,0,5.8-1.2,7.8-3.2"/>
		<line class="st5" x1="25.8" y1="63" x2="41.7" y2="63"/>
	</g>
</g>
</svg>
