<?xml version="1.0" encoding="utf-8"?>
<!-- Generator: Adobe Illustrator 21.1.0, SVG Export Plug-In . SVG Version: 6.00 Build 0)  -->
<svg version="1.1" id="Layer_1" xmlns="http://www.w3.org/2000/svg" xmlns:xlink="http://www.w3.org/1999/xlink" x="0px" y="0px"
	 viewBox="0 0 128 128" style="enable-background:new 0 0 128 128;" xml:space="preserve">
<style type="text/css">
	.st0{fill:#686499;}
	.st1{fill:#EBD7FF;}
	.st2{fill:#CFA2ED;}
	.st3{fill:#676F77;}
	.st4{fill:#444B54;}
	.st5{fill:none;stroke:#444B54;stroke-width:6;stroke-linecap:round;stroke-linejoin:round;stroke-miterlimit:10;}
	.st6{fill:#FFFFFF;}
	.st7{fill:#FF5576;}
	.st8{fill:#E9EEF4;}
	.st9{fill:#FCCA3D;}
	.st10{fill:#F2A50C;}
	.st11{fill:none;stroke:#FFFFFF;stroke-width:6;stroke-linecap:round;stroke-linejoin:round;stroke-miterlimit:10;}
	.st12{fill:none;stroke:#404242;stroke-width:1.5;stroke-linecap:round;stroke-linejoin:round;stroke-miterlimit:10;}
	.st13{fill:none;stroke:#373536;stroke-width:1.5;stroke-linecap:round;stroke-linejoin:round;stroke-miterlimit:10;}
	.st14{fill:#E4C2FF;}
	.st15{fill:none;stroke:#686499;stroke-width:6;stroke-linecap:round;stroke-linejoin:round;stroke-miterlimit:10;}
	.st16{fill:#DB3E64;}
	.st17{fill:#9B8272;}
	.st18{fill:#EFD5BE;}
</style>
<g>
	<path class="st4" d="M79,9c24.9,0,45,20.1,45,45c0,12.3-4.9,23.4-12.9,31.5L124,99H79c-24.9,0-45-20.1-45-45S54.1,9,79,9z"/>
	<path class="st5" d="M79,9c24.9,0,45,20.1,45,45c0,12.3-4.9,23.4-12.9,31.5L124,99H79c-24.9,0-45-20.1-45-45S54.1,9,79,9z"/>
	<path class="st6" d="M54,29C29.1,29,9,49.1,9,74c0,12.3,4.9,23.4,12.9,31.5L9,119h45c24.9,0,45-20.1,45-45S78.9,29,54,29z"/>
	<path class="st5" d="M54,29C29.1,29,9,49.1,9,74c0,12.3,4.9,23.4,12.9,31.5L9,119h45c24.9,0,45-20.1,45-45S78.9,29,54,29z"/>
	<circle class="st9" cx="54" cy="74" r="28"/>
	<g>
		<line class="st11" x1="39" y1="74" x2="69" y2="74"/>
		<line class="st11" x1="39" y1="64" x2="59" y2="64"/>
		<line class="st11" x1="54" y1="84" x2="69" y2="84"/>
		<circle class="st6" cx="39" cy="84" r="3"/>
		<circle class="st6" cx="69" cy="64" r="3"/>
	</g>
</g>
</svg>
