<?xml version="1.0" encoding="utf-8"?>
<!-- Generator: Adobe Illustrator 21.1.0, SVG Export Plug-In . SVG Version: 6.00 Build 0)  -->
<svg version="1.1" id="Layer_1" xmlns="http://www.w3.org/2000/svg" xmlns:xlink="http://www.w3.org/1999/xlink" x="0px" y="0px"
	 viewBox="0 0 128 128" style="enable-background:new 0 0 128 128;" xml:space="preserve">
<style type="text/css">
	.st0{fill:#686499;}
	.st1{fill:#EBD7FF;}
	.st2{fill:#CFA2ED;}
	.st3{fill:#676F77;}
	.st4{fill:#444B54;}
	.st5{fill:none;stroke:#444B54;stroke-width:6;stroke-linecap:round;stroke-linejoin:round;stroke-miterlimit:10;}
	.st6{fill:#FFFFFF;}
	.st7{fill:#FF5576;}
	.st8{fill:#E9EEF4;}
	.st9{fill:#FCCA3D;}
	.st10{fill:#F2A50C;}
	.st11{fill:none;stroke:#FFFFFF;stroke-width:6;stroke-linecap:round;stroke-linejoin:round;stroke-miterlimit:10;}
	.st12{fill:none;stroke:#404242;stroke-width:1.5;stroke-linecap:round;stroke-linejoin:round;stroke-miterlimit:10;}
	.st13{fill:none;stroke:#373536;stroke-width:1.5;stroke-linecap:round;stroke-linejoin:round;stroke-miterlimit:10;}
	.st14{fill:#E4C2FF;}
	.st15{fill:none;stroke:#686499;stroke-width:6;stroke-linecap:round;stroke-linejoin:round;stroke-miterlimit:10;}
	.st16{fill:#DB3E64;}
	.st17{fill:#9B8272;}
	.st18{fill:#EFD5BE;}
</style>
<g>
	<g>
		<g>
			<path class="st0" d="M79.9,31.9c-7.8,7.8-7.8,20.5,0,28.3c3.9,3.9,8.9,5.8,14,5.9l0.2,8.3l14.1-14.1c7.8-7.8,7.8-20.5,0-28.3
				S87.7,24.1,79.9,31.9z"/>
			<path class="st8" d="M56.4,14C66.6,25.5,66.4,43.1,56,54.4c-5.9,6.3-13.8,9.5-21.7,9.6L34,76.4L13.2,55.6
				C2.1,44.5,0.9,26.7,11,14.7C22.9,0.7,44.2,0.4,56.4,14z"/>
			<line class="st11" x1="24.1" y1="24" x2="34" y2="24"/>
			<line class="st11" x1="24.1" y1="34" x2="44" y2="34"/>
			<line class="st11" x1="89" y1="41.1" x2="99" y2="41.1"/>
			<line class="st11" x1="44" y1="44" x2="34.1" y2="44"/>
			<circle class="st6" cx="89" cy="51.1" r="3"/>
			<circle class="st6" cx="24.1" cy="44" r="3"/>
			<circle class="st6" cx="44" cy="24" r="3"/>
		</g>
		<line class="st5" x1="37" y1="123.9" x2="94" y2="124"/>
		<g>
			<g>
				<path class="st6" d="M39,94h50l-1.9-16.2c-0.6-5-4.9-8.8-9.9-8.8H50.9c-5.1,0-9.3,3.8-9.9,8.8L39,94z"/>
				<path class="st5" d="M39,94h50l-1.9-16.2c-0.6-5-4.9-8.8-9.9-8.8H50.9c-5.1,0-9.3,3.8-9.9,8.8L39,94z"/>
				<path class="st4" d="M57.7,66v3H70v-3l0,0c0-1.7-1.3-3-3-3h-6.3C59,63,57.7,64.3,57.7,66L57.7,66z"/>
				<polyline class="st5" points="36,114 36,124 41,124 41,114 				"/>
				<polyline class="st5" points="87,114 87,124 91,124 91,114 				"/>
				<rect x="39" y="88.9" transform="matrix(-1 -4.478385e-11 4.478385e-11 -1 128 202.7677)" class="st3" width="50" height="25"/>
				<rect x="64" y="88.9" class="st4" width="25" height="25"/>
				<path class="st5" d="M39,113.9h50v-20c0-2.8-2.2-5-5-5h0c-13.3-2-26.7-2-40,0h0c-2.8,0-5,2.2-5,5V113.9z"/>
				<path class="st3" d="M89,94L89,94c3.9,0,7,3.1,7,7v13H82v-13C82,97.1,85.1,94,89,94z"/>
				<path class="st3" d="M39,94L39,94c3.9,0,7,3.1,7,7v13H32v-13C32,97.1,35.1,94,39,94z"/>
				<line class="st5" x1="99" y1="114" x2="29" y2="114"/>
				<path class="st5" d="M89,94L89,94c3.9,0,7,3.1,7,7v13H82v-13C82,97.1,85.1,94,89,94z"/>
				<path class="st5" d="M39,94L39,94c3.9,0,7,3.1,7,7v13H32v-13C32,97.1,35.1,94,39,94z"/>
				<circle class="st6" cx="89" cy="101" r="4"/>
				<circle class="st6" cx="39" cy="101" r="4"/>
			</g>
			<path class="st6" d="M58,111h12c1.1,0,2-0.9,2-2v-7c0-4.4-3.6-8-8-8h0c-4.4,0-8,3.6-8,8v7C56,110.1,56.9,111,58,111z"/>
		</g>
		<circle class="st4" cx="109" cy="124" r="3"/>
	</g>
</g>
</svg>
