<?xml version="1.0" encoding="utf-8"?>
<!-- Generator: Adobe Illustrator 21.1.0, SVG Export Plug-In . SVG Version: 6.00 Build 0)  -->
<svg version="1.1" id="Layer_1" xmlns="http://www.w3.org/2000/svg" xmlns:xlink="http://www.w3.org/1999/xlink" x="0px" y="0px"
	 viewBox="0 0 128 128" style="enable-background:new 0 0 128 128;" xml:space="preserve">
<style type="text/css">
	.st0{fill:#686499;}
	.st1{fill:#EBD7FF;}
	.st2{fill:#CFA2ED;}
	.st3{fill:#676F77;}
	.st4{fill:#444B54;}
	.st5{fill:none;stroke:#444B54;stroke-width:6;stroke-linecap:round;stroke-linejoin:round;stroke-miterlimit:10;}
	.st6{fill:#FFFFFF;}
	.st7{fill:#FF5576;}
	.st8{fill:#E9EEF4;}
	.st9{fill:#FCCA3D;}
	.st10{fill:#F2A50C;}
	.st11{fill:none;stroke:#FFFFFF;stroke-width:6;stroke-linecap:round;stroke-linejoin:round;stroke-miterlimit:10;}
	.st12{fill:none;stroke:#404242;stroke-width:1.5;stroke-linecap:round;stroke-linejoin:round;stroke-miterlimit:10;}
	.st13{fill:none;stroke:#373536;stroke-width:1.5;stroke-linecap:round;stroke-linejoin:round;stroke-miterlimit:10;}
	.st14{fill:#E4C2FF;}
	.st15{fill:none;stroke:#686499;stroke-width:6;stroke-linecap:round;stroke-linejoin:round;stroke-miterlimit:10;}
	.st16{fill:#DB3E64;}
	.st17{fill:#9B8272;}
	.st18{fill:#EFD5BE;}
</style>
<g>
	<path class="st6" d="M93,60H35c-5.1,0-9.4,3.9-10,9L21,110h86l-4.1-41C102.4,63.9,98.1,60,93,60z"/>
	<g>
		<path class="st8" d="M107,110l-4.1-41c0-0.3-0.1-0.5-0.1-0.8c-1-5.6-9.4-4.2-8.8,1.4l0.8,8.4c1.2,11.8-8.1,22-19.9,22H42
			c-5.7,0-10.5,4.3-11,10v0H107z"/>
	</g>
	<path class="st9" d="M107,124H21c-3.9,0-7-3.1-7-7v0c0-3.9,3.1-7,7-7h86c3.9,0,7,3.1,7,7v0C114,120.9,110.9,124,107,124z"/>
	<path class="st5" d="M107,124H21c-3.9,0-7-3.1-7-7v0c0-3.9,3.1-7,7-7h86c3.9,0,7,3.1,7,7v0C114,120.9,110.9,124,107,124z"/>
	<path class="st5" d="M107,110l-4.1-41c-0.5-5.1-4.8-9-10-9H35c-5.1,0-9.4,3.9-10,9L22,100"/>
	<g>
		<rect x="39" y="75" class="st4" width="10" height="10"/>
		<rect x="59" y="75" class="st4" width="10" height="10"/>
		<rect x="49" y="85" class="st4" width="10" height="10"/>
		<rect x="79" y="75" class="st4" width="10" height="10"/>
		<rect x="69" y="85" class="st4" width="10" height="10"/>
	</g>
</g>
</svg>
