<?xml version="1.0" encoding="utf-8"?>
<!-- Generator: Adobe Illustrator 21.1.0, SVG Export Plug-In . SVG Version: 6.00 Build 0)  -->
<svg version="1.1" id="Layer_1" xmlns="http://www.w3.org/2000/svg" xmlns:xlink="http://www.w3.org/1999/xlink" x="0px" y="0px"
	 viewBox="0 0 128 128" style="enable-background:new 0 0 128 128;" xml:space="preserve">
<style type="text/css">
	.st0{fill:#686499;}
	.st1{fill:#EBD7FF;}
	.st2{fill:#CFA2ED;}
	.st3{fill:#676F77;}
	.st4{fill:#444B54;}
	.st5{fill:none;stroke:#444B54;stroke-width:6;stroke-linecap:round;stroke-linejoin:round;stroke-miterlimit:10;}
	.st6{fill:#FFFFFF;}
	.st7{fill:#FF5576;}
	.st8{fill:#E9EEF4;}
	.st9{fill:#FCCA3D;}
	.st10{fill:#F2A50C;}
	.st11{fill:none;stroke:#FFFFFF;stroke-width:6;stroke-linecap:round;stroke-linejoin:round;stroke-miterlimit:10;}
	.st12{fill:none;stroke:#404242;stroke-width:1.5;stroke-linecap:round;stroke-linejoin:round;stroke-miterlimit:10;}
	.st13{fill:none;stroke:#373536;stroke-width:1.5;stroke-linecap:round;stroke-linejoin:round;stroke-miterlimit:10;}
	.st14{fill:#E4C2FF;}
	.st15{fill:none;stroke:#686499;stroke-width:6;stroke-linecap:round;stroke-linejoin:round;stroke-miterlimit:10;}
	.st16{fill:#DB3E64;}
	.st17{fill:#9B8272;}
	.st18{fill:#EFD5BE;}
</style>
<g>
	<path class="st7" d="M99,124H9c-2.8,0-5-2.2-5-5V59c0-2.8,2.2-5,5-5h90c2.8,0,5,2.2,5,5v60C104,121.8,101.8,124,99,124z"/>
	<g>
		<path class="st16" d="M103,121H20c-1.7,0-3-1.3-3-3s1.3-3,3-3h83c1.7,0,3,1.3,3,3S104.7,121,103,121z"/>
	</g>
	<path class="st6" d="M73.5,112.3L50.9,104c-1.6-0.6-2.4-2.3-1.8-3.8L53.9,87c0.6-1.6,2.3-2.4,3.8-1.8l22.6,8.2
		c1.6,0.6,2.4,2.3,1.8,3.8l-4.8,13.2C76.8,112,75,112.8,73.5,112.3z"/>
	<path class="st6" d="M47.8,79.4l-13.2,4.8c-1.6,0.6-3.3-0.2-3.8-1.8l-3.1-8.5c-0.6-1.6,0.2-3.3,1.8-3.8l13.2-4.8
		c1.6-0.6,3.3,0.2,3.8,1.8l3.1,8.5C50.1,77.1,49.3,78.8,47.8,79.4z"/>
	<path class="st5" d="M99,124H9c-2.8,0-5-2.2-5-5V59c0-2.8,2.2-5,5-5h90c2.8,0,5,2.2,5,5v60C104,121.8,101.8,124,99,124z"/>
	<line class="st5" x1="111" y1="124" x2="99" y2="124"/>
	<circle class="st4" cx="124" cy="124" r="3"/>
	<line class="st5" x1="19" y1="124" x2="19" y2="66.2"/>
	<line class="st5" x1="89" y1="124" x2="89" y2="66.2"/>
	<path class="st5" d="M41.5,45L41.5,45c0-4.4,3.6-8,8-8h9c4.4,0,8,3.6,8,8v0"/>
	<circle class="st4" cx="19" cy="51" r="3"/>
	<circle class="st4" cx="89" cy="51" r="3"/>
</g>
</svg>
