<?xml version="1.0" encoding="utf-8"?>
<!-- Generator: Adobe Illustrator 21.1.0, SVG Export Plug-In . SVG Version: 6.00 Build 0)  -->
<svg version="1.1" id="Layer_1" xmlns="http://www.w3.org/2000/svg" xmlns:xlink="http://www.w3.org/1999/xlink" x="0px" y="0px"
	 viewBox="0 0 128 128" style="enable-background:new 0 0 128 128;" xml:space="preserve">
<style type="text/css">
	.st0{fill:#686499;}
	.st1{fill:#EBD7FF;}
	.st2{fill:#CFA2ED;}
	.st3{fill:#676F77;}
	.st4{fill:#444B54;}
	.st5{fill:none;stroke:#444B54;stroke-width:6;stroke-linecap:round;stroke-linejoin:round;stroke-miterlimit:10;}
	.st6{fill:#FFFFFF;}
	.st7{fill:#FF5576;}
	.st8{fill:#E9EEF4;}
	.st9{fill:#FCCA3D;}
	.st10{fill:#F2A50C;}
	.st11{fill:none;stroke:#FFFFFF;stroke-width:6;stroke-linecap:round;stroke-linejoin:round;stroke-miterlimit:10;}
	.st12{fill:none;stroke:#404242;stroke-width:1.5;stroke-linecap:round;stroke-linejoin:round;stroke-miterlimit:10;}
	.st13{fill:none;stroke:#373536;stroke-width:1.5;stroke-linecap:round;stroke-linejoin:round;stroke-miterlimit:10;}
	.st14{fill:#E4C2FF;}
	.st15{fill:none;stroke:#686499;stroke-width:6;stroke-linecap:round;stroke-linejoin:round;stroke-miterlimit:10;}
	.st16{fill:#DB3E64;}
	.st17{fill:#9B8272;}
	.st18{fill:#EFD5BE;}
</style>
<g>
	<path class="st4" d="M109,34H19c-3.9,0-7-3.1-7-7v0c0-3.9,3.1-7,7-7h90c3.9,0,7,3.1,7,7v0C116,30.9,112.9,34,109,34z"/>
	<path class="st5" d="M109,34H19c-3.9,0-7-3.1-7-7v0c0-3.9,3.1-7,7-7h90c3.9,0,7,3.1,7,7v0C116,30.9,112.9,34,109,34z"/>
	<path class="st6" d="M29,101.9L29,27l70,0l0,74.9c0,5.5-4.5,10-10,10l-50,0C33.5,111.9,29,107.5,29,101.9z"/>
	<circle class="st8" cx="49" cy="90.6" r="10"/>
	<circle class="st8" cx="49" cy="76.6" r="10"/>
	<rect x="68.7" y="27" class="st9" width="15.3" height="83.6"/>
	<path class="st5" d="M29,27l0,74c0,5.5,4.5,10,10,10l50,0c5.5,0,10-4.5,10-10l0-74"/>
</g>
</svg>
