<?xml version="1.0" encoding="utf-8"?>
<!-- Generator: Adobe Illustrator 21.1.0, SVG Export Plug-In . SVG Version: 6.00 Build 0)  -->
<svg version="1.1" id="Layer_1" xmlns="http://www.w3.org/2000/svg" xmlns:xlink="http://www.w3.org/1999/xlink" x="0px" y="0px"
	 viewBox="0 0 128 128" style="enable-background:new 0 0 128 128;" xml:space="preserve">
<style type="text/css">
	.st0{fill:#686499;}
	.st1{fill:#EBD7FF;}
	.st2{fill:#CFA2ED;}
	.st3{fill:#676F77;}
	.st4{fill:#444B54;}
	.st5{fill:none;stroke:#444B54;stroke-width:6;stroke-linecap:round;stroke-linejoin:round;stroke-miterlimit:10;}
	.st6{fill:#FFFFFF;}
	.st7{fill:#FF5576;}
	.st8{fill:#E9EEF4;}
	.st9{fill:#FCCA3D;}
	.st10{fill:#F2A50C;}
	.st11{fill:none;stroke:#FFFFFF;stroke-width:6;stroke-linecap:round;stroke-linejoin:round;stroke-miterlimit:10;}
	.st12{fill:none;stroke:#404242;stroke-width:1.5;stroke-linecap:round;stroke-linejoin:round;stroke-miterlimit:10;}
	.st13{fill:none;stroke:#373536;stroke-width:1.5;stroke-linecap:round;stroke-linejoin:round;stroke-miterlimit:10;}
	.st14{fill:#E4C2FF;}
	.st15{fill:none;stroke:#686499;stroke-width:6;stroke-linecap:round;stroke-linejoin:round;stroke-miterlimit:10;}
	.st16{fill:#DB3E64;}
	.st17{fill:#9B8272;}
	.st18{fill:#EFD5BE;}
</style>
<g>
	<path class="st4" d="M109,27H19c-3.9,0-7-3.1-7-7v0c0-3.9,3.1-7,7-7h90c3.9,0,7,3.1,7,7v0C116,23.9,112.9,27,109,27z"/>
	<polygon class="st6" points="99,20 29,20 29,112 39,122 49,112 59,122 69,112 79,122 89,112 99,122 	"/>
	<path class="st4" d="M29,115c-1.7,0-3-1.3-3-3V20c0-1.7,1.3-3,3-3s3,1.3,3,3v92C32,113.7,30.7,115,29,115z"/>
	<path class="st4" d="M99,125c-0.8,0-1.5-0.3-2.1-0.9l-7.9-7.9l-7.9,7.9c-1.2,1.2-3.1,1.2-4.2,0l-7.9-7.9l-7.9,7.9
		c-1.2,1.2-3.1,1.2-4.2,0l-7.9-7.9l-7.9,7.9c-1.2,1.2-3.1,1.2-4.2,0c-1.2-1.2-1.2-3.1,0-4.2l10-10c1.2-1.2,3.1-1.2,4.2,0l7.9,7.9
		l7.9-7.9c1.2-1.2,3.1-1.2,4.2,0l7.9,7.9l7.9-7.9c1.2-1.2,3.1-1.2,4.2,0l4.9,4.9V20c0-1.7,1.3-3,3-3s3,1.3,3,3v102
		c0,1.2-0.7,2.3-1.9,2.8C99.8,124.9,99.4,125,99,125z"/>
	<path class="st9" d="M84,42H44c-1.7,0-3-1.3-3-3s1.3-3,3-3h40c1.7,0,3,1.3,3,3S85.7,42,84,42z"/>
	<path class="st9" d="M84,57H44c-1.7,0-3-1.3-3-3s1.3-3,3-3h40c1.7,0,3,1.3,3,3S85.7,57,84,57z"/>
	<path class="st9" d="M84,72H44c-1.7,0-3-1.3-3-3s1.3-3,3-3h40c1.7,0,3,1.3,3,3S85.7,72,84,72z"/>
	<path class="st9" d="M74,87H44c-1.7,0-3-1.3-3-3s1.3-3,3-3h30c1.7,0,3,1.3,3,3S75.7,87,74,87z"/>
	<path class="st9" d="M84,87c-0.8,0-1.6-0.3-2.1-0.9c-0.1-0.1-0.3-0.3-0.4-0.5c-0.1-0.2-0.2-0.3-0.3-0.5s-0.1-0.4-0.2-0.6
		c0-0.2-0.1-0.4-0.1-0.6c0-0.8,0.3-1.6,0.9-2.1c0.1-0.1,0.3-0.3,0.4-0.4c0.2-0.1,0.3-0.2,0.5-0.3c0.2-0.1,0.4-0.1,0.6-0.2
		c0.4-0.1,0.8-0.1,1.2,0c0.2,0,0.4,0.1,0.6,0.2c0.2,0.1,0.4,0.2,0.5,0.3c0.2,0.1,0.3,0.2,0.4,0.4c0.6,0.6,0.9,1.3,0.9,2.1
		c0,0.2,0,0.4-0.1,0.6c0,0.2-0.1,0.4-0.2,0.6c-0.1,0.2-0.2,0.4-0.3,0.5c-0.1,0.2-0.2,0.3-0.4,0.5C85.6,86.7,84.8,87,84,87z"/>
	<path class="st4" d="M109,30H98.8c-1.7,0-2-1.3-2-3s0.3-3,2-3H109c2.2,0,4-1.8,4-4s-1.8-4-4-4H19c-2.2,0-4,1.8-4,4s1.8,4,4,4h9.8
		c1.7,0,2,1.3,2,3s-0.3,3-2,3H19c-5.5,0-10-4.5-10-10s4.5-10,10-10h90c5.5,0,10,4.5,10,10S114.5,30,109,30z"/>
</g>
</svg>
