<?xml version="1.0" encoding="utf-8"?>
<!-- Generator: Adobe Illustrator 21.1.0, SVG Export Plug-In . SVG Version: 6.00 Build 0)  -->
<svg version="1.1" id="Layer_1" xmlns="http://www.w3.org/2000/svg" xmlns:xlink="http://www.w3.org/1999/xlink" x="0px" y="0px"
	 viewBox="0 0 128 128" style="enable-background:new 0 0 128 128;" xml:space="preserve">
<style type="text/css">
	.st0{fill:#686499;}
	.st1{fill:#EBD7FF;}
	.st2{fill:#CFA2ED;}
	.st3{fill:#676F77;}
	.st4{fill:#444B54;}
	.st5{fill:none;stroke:#444B54;stroke-width:6;stroke-linecap:round;stroke-linejoin:round;stroke-miterlimit:10;}
	.st6{fill:#FFFFFF;}
	.st7{fill:#FF5576;}
	.st8{fill:#E9EEF4;}
	.st9{fill:#FCCA3D;}
	.st10{fill:#F2A50C;}
	.st11{fill:none;stroke:#FFFFFF;stroke-width:6;stroke-linecap:round;stroke-linejoin:round;stroke-miterlimit:10;}
	.st12{fill:none;stroke:#404242;stroke-width:1.5;stroke-linecap:round;stroke-linejoin:round;stroke-miterlimit:10;}
	.st13{fill:none;stroke:#373536;stroke-width:1.5;stroke-linecap:round;stroke-linejoin:round;stroke-miterlimit:10;}
	.st14{fill:#E4C2FF;}
	.st15{fill:none;stroke:#686499;stroke-width:6;stroke-linecap:round;stroke-linejoin:round;stroke-miterlimit:10;}
	.st16{fill:#DB3E64;}
	.st17{fill:#9B8272;}
	.st18{fill:#EFD5BE;}
</style>
<g>
	<path class="st6" d="M81.6,46h-35c-7.6,0-14,5.7-14.9,13.2L29,82h70l-2.5-22.7C95.6,51.7,89.2,46,81.6,46z"/>
	<path class="st8" d="M81.6,46H64v36h35l-2.5-22.7C95.6,51.7,89.2,46,81.6,46z"/>
	<rect x="29" y="76" class="st3" width="70" height="34"/>
	<rect x="64" y="76" class="st4" width="35" height="34"/>
	<g>
		<path class="st3" d="M29,82L29,82c-5.5,0-10,4.5-10,10v18h20V92C39,86.5,34.5,82,29,82z"/>
		<path class="st3" d="M109,110V92c0-5.5-4.5-10-10-10h0c-5.5,0-10,4.5-10,10v18"/>
		<path class="st5" d="M39,110V92c0-5.5-4.5-10-10-10h0c-5.5,0-10,4.5-10,10v18"/>
		<path class="st5" d="M109,110V92c0-5.5-4.5-10-10-10h0c-5.5,0-10,4.5-10,10v18"/>
	</g>
	<path class="st5" d="M30,76.7c22.5-3.4,45.5-3.4,68,0"/>
	<path class="st5" d="M99,82l-2.5-22.7C95.6,51.7,89.2,46,81.6,46h-35c-7.6,0-14,5.7-14.9,13.2L29,82"/>
	<polyline class="st4" points="103,110 103,124 95,124 95,110 	"/>
	<polyline class="st4" points="33,110 33,124 25,124 25,110 	"/>
	<polyline class="st5" points="103,110 103,124 95,124 95,110 	"/>
	<polyline class="st5" points="33,110 33,124 25,124 25,110 	"/>
	<line class="st5" x1="112" y1="110" x2="16" y2="110"/>
	<g>
		<path class="st4" d="M74,43v3H54v-3v0c0-3.3,2.7-6,6-6h8C71.3,37,74,39.7,74,43L74,43z"/>
	</g>
	<line class="st5" x1="25.4" y1="124" x2="109" y2="124"/>
	<circle class="st4" cx="124" cy="124" r="3"/>
	<path class="st6" d="M69,99.7H59c-1.7,0-3-1.3-3-3v-7h16v7C72,98.4,70.7,99.7,69,99.7z"/>
	<line class="st5" x1="56" y1="89.7" x2="72" y2="89.7"/>
	<path class="st7" d="M29,90L29,90c-1.1,0-2,0.9-2,2v8c0,1.1,0.9,2,2,2h0c1.1,0,2-0.9,2-2v-8C31,90.9,30.1,90,29,90z"/>
	<path class="st7" d="M99,90L99,90c-1.1,0-2,0.9-2,2v8c0,1.1,0.9,2,2,2h0c1.1,0,2-0.9,2-2v-8C101,90.9,100.1,90,99,90z"/>
</g>
</svg>
