<?xml version="1.0" encoding="utf-8"?>
<!-- Generator: Adobe Illustrator 21.1.0, SVG Export Plug-In . SVG Version: 6.00 Build 0)  -->
<svg version="1.1" id="Layer_1" xmlns="http://www.w3.org/2000/svg" xmlns:xlink="http://www.w3.org/1999/xlink" x="0px" y="0px"
	 viewBox="0 0 128 128" style="enable-background:new 0 0 128 128;" xml:space="preserve">
<style type="text/css">
	.st0{fill:#686499;}
	.st1{fill:#EBD7FF;}
	.st2{fill:#CFA2ED;}
	.st3{fill:#676F77;}
	.st4{fill:#444B54;}
	.st5{fill:none;stroke:#444B54;stroke-width:6;stroke-linecap:round;stroke-linejoin:round;stroke-miterlimit:10;}
	.st6{fill:#FFFFFF;}
	.st7{fill:#FF5576;}
	.st8{fill:#E9EEF4;}
	.st9{fill:#FCCA3D;}
	.st10{fill:#F2A50C;}
	.st11{fill:none;stroke:#FFFFFF;stroke-width:6;stroke-linecap:round;stroke-linejoin:round;stroke-miterlimit:10;}
	.st12{fill:none;stroke:#404242;stroke-width:1.5;stroke-linecap:round;stroke-linejoin:round;stroke-miterlimit:10;}
	.st13{fill:none;stroke:#373536;stroke-width:1.5;stroke-linecap:round;stroke-linejoin:round;stroke-miterlimit:10;}
	.st14{fill:#E4C2FF;}
	.st15{fill:none;stroke:#686499;stroke-width:6;stroke-linecap:round;stroke-linejoin:round;stroke-miterlimit:10;}
	.st16{fill:#DB3E64;}
	.st17{fill:#9B8272;}
	.st18{fill:#EFD5BE;}
</style>
<g>
	<path class="st6" d="M64,114L64,114c-16.8,0-30.5-13.7-30.5-30.5V61h61c0,0-11.9,51.1-27.1,52.8C66.3,113.9,65.1,114,64,114z"/>
	<rect x="29" y="49" class="st10" width="70" height="6"/>
	<path class="st3" d="M107,32.3L64,23l-43,9.3V41c0,4.4,3.6,8,8,8h35h35c4.4,0,8-3.6,8-8V32.3z"/>
	<path class="st18" d="M64,61l0.1,23c0,2.2,1.8,4,4,4h0l4.1,6v0c0,1.7-1.3,3.1-3,3.3h-3l0,0c-1.1,0-2.1,0.9-2.1,2.1L64,110.8
		c0,1.8,1.5,3.2,3.3,3c15.3-1.7,27.1-14.6,27.1-30.3l0-22.5H64z"/>
	<path class="st9" d="M64,52L64,52c0-1.7-1.3-3-3-3H29l0,6l32,0C62.7,55,64,53.7,64,52z"/>
	<circle class="st6" cx="50" cy="77" r="7"/>
	<path class="st4" d="M53,77c0,1.7-1.3,3-3,3s-3-1.3-3-3v-2h6V77z"/>
	<circle class="st6" cx="78" cy="77" r="7"/>
	<path class="st3" d="M84,77H44c-8.3,0-15-6.7-15-15v0v-7l70,0l0,7v0C99,70.3,92.3,77,84,77z"/>
	<path class="st4" d="M99,61H61h0c1.7,0,3,1.3,3,3v13h20c8.3,0,15-6.7,15-15L99,61z"/>
	<line class="st5" x1="54" y1="91.6" x2="74" y2="91.6"/>
	<path class="st4" d="M81,77c0,1.7-1.3,3-3,3s-3-1.3-3-3v-2h6V77z"/>
	<path class="st4" d="M107,32.3L64,23l0,0l0,20c0,3.3-2.7,6-6,6h0h41c4.4,0,8-3.6,8-8V32.3z"/>
	<g>
		<rect x="55" y="31" class="st6" width="6" height="6"/>
		<rect x="67" y="31" class="st6" width="6" height="6"/>
	</g>
	<g>
		<rect x="61" y="37" class="st6" width="6" height="6"/>
	</g>
	<rect x="29" y="55" class="st4" width="70" height="6"/>
</g>
</svg>
